<svg width="133" height="42" viewBox="0 0 133 42" fill="none" xmlns="http://www.w3.org/2000/svg">
<path d="M57.8103 29.2583C61.9548 29.2583 63.7968 27.1655 63.7968 24.6398C63.7968 22.2103 62.4638 20.6949 59.41 20.0694L56.6469 19.4921C54.4171 19.011 53.7627 18.6021 53.7627 17.1348C53.7627 15.7156 54.7322 15.042 57.1317 15.042C60.0401 15.042 60.9126 16.0764 60.9126 18.0489V18.3135H63.4818V18.0248C63.4818 15.1623 61.6882 12.6606 57.2044 12.6606C53.0114 12.6606 51.1452 14.8737 51.1452 17.2551C51.1452 19.8048 52.6478 21.1519 55.4351 21.6811L58.1981 22.2344C60.6945 22.7395 61.1793 23.2687 61.1793 24.736C61.1793 26.2274 60.3067 26.8769 57.9073 26.8769C54.5141 26.8769 53.6658 25.8666 53.6658 23.8701V23.6055H51.0967V24.0144C51.0967 27.1174 53.1326 29.2583 57.8103 29.2583Z" fill="#2D2D2D"/>
<path d="M68.4144 29.0177V22.0419C68.4144 19.877 69.3354 19.0592 71.3228 19.0592C73.5041 19.0592 74.1585 19.9492 74.1585 22.09V29.0177H76.7761V22.066C76.7761 19.877 77.6971 19.0592 79.6846 19.0592C81.8659 19.0592 82.5203 19.9492 82.5203 22.09V29.0177H85.1379V21.5127C85.1379 18.7946 83.7564 16.8221 80.654 16.8221C78.2788 16.8221 77.0427 18.0489 76.4853 19.2997H76.4126C75.8309 17.7843 74.5221 16.8221 72.4135 16.8221C70.111 16.8221 68.8506 18.0248 68.2932 19.2997H68.1962V17.0626H65.7968V29.0177H68.4144Z" fill="#2D2D2D"/>
<path d="M90.8921 29.2583C93.1703 29.2583 94.5518 28.272 95.2547 27.1415H95.3759V29.0177H97.7996V21.7533C97.7996 18.8427 96.103 16.8221 92.7341 16.8221C89.5106 16.8221 87.4019 18.7464 87.4019 21.4165V21.657H89.9226V21.2962C89.9226 19.7086 90.6739 19.1073 92.5887 19.1073C94.4791 19.1073 95.3032 19.6365 95.3032 21.4165V22.066L91.086 22.6914C88.5168 23.0522 87.0626 24.0866 87.0626 26.059C87.0626 28.1518 88.735 29.2583 90.8921 29.2583ZM89.6075 25.8666C89.6075 24.9766 90.0922 24.6639 91.4738 24.4714L95.3032 23.8941V24.1106C95.3032 26.5161 93.4369 27.1896 91.7404 27.1896C90.2134 27.1896 89.6075 26.8047 89.6075 25.8666Z" fill="#2D2D2D"/>
<path d="M102.924 29.0177V12.9012H100.306V29.0177H102.924Z" fill="#2D2D2D"/>
<path d="M108.202 29.0177V12.9012H105.584V29.0177H108.202Z" fill="#2D2D2D"/>
<path d="M116.029 29.2583C119.277 29.2583 121.434 27.6707 121.434 25.2171V25.0006H118.841V25.1931C118.841 26.2755 118.065 26.949 116.054 26.949C113.533 26.949 112.733 25.8425 112.636 23.6536H121.386C121.458 23.2928 121.531 22.6433 121.531 22.0179C121.531 18.7464 119.253 16.8221 116.005 16.8221C112.418 16.8221 110.188 19.3238 110.188 23.0282C110.188 26.7566 112.055 29.2583 116.029 29.2583ZM115.957 19.011C118.017 19.011 119.132 19.877 119.035 21.9216H112.66C112.806 20.0694 113.678 19.011 115.957 19.011Z" fill="#2D2D2D"/>
<path d="M126.238 29.0177V21.2241C126.238 19.6365 126.819 19.0351 128.395 19.0351C129.922 19.0351 130.382 19.6124 130.382 21.2V21.6811H133V20.8873C133 18.6502 132.03 16.8221 129.51 16.8221C127.74 16.8221 126.625 17.7843 126.141 18.8908H126.019V16.9905H123.62V29.0177H126.238Z" fill="#2D2D2D"/>
<path d="M0.922875 10.1542C1.61861 5.35235 5.39903 1.63985 10.2373 0.949569C13.7454 0.449073 17.8227 0 21.1593 0C24.4958 0 28.5731 0.449073 32.0812 0.949569C36.9195 1.63985 40.6999 5.35235 41.3956 10.1542C41.8861 13.5395 42.3185 17.5127 42.3185 21C42.3185 24.502 41.8825 28.494 41.3894 31.8885C40.6952 36.6682 36.9429 40.3716 32.127 41.0605C28.6572 41.557 24.5974 42 21.1593 42C17.7211 42 13.6613 41.557 10.1915 41.0605C5.3756 40.3716 1.6233 36.6682 0.929076 31.8885C0.436032 28.494 0 24.502 0 21C0 17.5127 0.432383 13.5395 0.922875 10.1542Z" fill="#2D2D2D"/>
<path d="M21.8022 32.5681C27.6358 32.5681 30.2285 29.6225 30.2285 26.0674C30.2285 22.6478 28.3522 20.5148 24.0538 19.6345L20.1647 18.8219C17.0262 18.1447 16.1051 17.5691 16.1051 15.5038C16.1051 13.5062 17.4697 12.5582 20.847 12.5582C24.9408 12.5582 26.1689 14.0141 26.1689 16.7904V17.1628H29.785V16.7566C29.785 12.7275 27.2605 9.2063 20.9494 9.2063C15.0476 9.2063 12.4208 12.3212 12.4208 15.6731C12.4208 19.262 14.5359 21.1581 18.459 21.9029L22.3481 22.6816C25.8618 23.3927 26.5441 24.1375 26.5441 26.2028C26.5441 28.302 25.316 29.2162 21.9387 29.2162C17.1627 29.2162 15.9687 27.7942 15.9687 24.984V24.6115H12.3525V25.1871C12.3525 29.5548 15.2181 32.5681 21.8022 32.5681Z" fill="url(#paint0_linear_16168_48)"/>
<path fill-rule="evenodd" clip-rule="evenodd" d="M13.9411 10.5732C15.5199 9.21707 17.8588 8.40015 20.9501 8.40015C24.2572 8.40015 26.6931 9.32561 28.3037 10.8953C29.9126 12.4633 30.598 14.5769 30.598 16.7565V17.969H25.3574V16.7904C25.3574 15.503 25.0715 14.7284 24.509 14.2398C23.9154 13.7244 22.8329 13.3643 20.8478 13.3643C19.2015 13.3643 18.2111 13.6019 17.6493 13.9601C17.1665 14.268 16.9181 14.7176 16.9181 15.5038C16.9181 16.4067 17.1113 16.7765 17.4613 17.0501C17.9152 17.405 18.7452 17.6903 20.3354 18.0336C20.3363 18.0337 20.3371 18.0339 20.338 18.0341L24.2187 18.8449C24.2191 18.845 24.2195 18.8451 24.2199 18.8452C26.4621 19.3046 28.1855 20.1123 29.3477 21.3488C30.5253 22.6017 31.0415 24.2034 31.0415 26.0674C31.0415 28.0485 30.3128 29.908 28.7346 31.2609C27.1677 32.6043 24.8508 33.3742 21.803 33.3742C18.3993 33.3742 15.821 32.5966 14.0829 31.1295C12.3248 29.6457 11.541 27.5542 11.541 25.1871V23.8054H16.7816V24.9839C16.7816 26.2929 17.0605 27.0427 17.669 27.5229C18.3366 28.0499 19.5865 28.41 21.9394 28.41C23.5946 28.41 24.5353 28.1778 25.0527 27.8296C25.4884 27.5362 25.7326 27.0827 25.7326 26.2028C25.7326 25.2466 25.5719 24.8404 25.2275 24.5392C24.7984 24.164 23.953 23.829 22.1875 23.4717C22.1872 23.4716 22.1868 23.4716 22.1865 23.4715L18.3031 22.6939C16.258 22.3051 14.5716 21.5971 13.3939 20.4233C12.1945 19.228 11.6092 17.6368 11.6092 15.6731C11.6092 13.7801 12.3558 11.9348 13.9411 10.5732ZM15.0042 11.7923C13.8005 12.8261 13.2337 14.2141 13.2337 15.6731C13.2337 17.2983 13.706 18.4496 14.545 19.2857C15.4048 20.1426 16.7361 20.7549 18.6124 21.1111L18.6164 21.1119L22.5111 21.8917C24.2587 22.2454 25.511 22.6383 26.3015 23.3295C27.1766 24.0948 27.3571 25.0937 27.3571 26.2028C27.3571 27.4221 26.9872 28.4753 25.9646 29.1638C25.0235 29.7974 23.6616 30.0223 21.9394 30.0223C19.5163 30.0223 17.7812 29.6714 16.6578 28.7848C15.5902 27.9422 15.2272 26.7467 15.1667 25.4176H13.1684C13.2168 27.3107 13.8656 28.8298 15.1353 29.9013C16.476 31.0329 18.6225 31.7619 21.803 31.7619C24.5887 31.7619 26.4849 31.0591 27.6727 30.0408C28.8493 29.0321 29.417 27.6414 29.417 26.0674C29.417 24.5118 28.995 23.3372 28.1598 22.4485C27.3095 21.5438 25.946 20.8449 23.8904 20.4239L23.8872 20.4233L19.9929 19.6096C18.4463 19.2759 17.2471 18.935 16.4561 18.3167C15.5609 17.6169 15.2936 16.6662 15.2936 15.5038C15.2936 14.2924 15.7274 13.2692 16.7713 12.6037C17.7361 11.9885 19.1167 11.7521 20.8478 11.7521C22.9563 11.7521 24.5347 12.1199 25.5787 13.0265C26.5482 13.8684 26.9103 15.0422 26.972 16.3567H28.9643C28.8863 14.6682 28.3072 13.1584 27.1655 12.0457C25.9361 10.8476 23.9541 10.0124 20.9501 10.0124C18.1396 10.0124 16.2142 10.7529 15.0042 11.7923Z" fill="url(#paint1_linear_16168_48)"/>
<defs>
<linearGradient id="paint0_linear_16168_48" x1="21.2905" y1="9.2063" x2="21.2905" y2="32.5681" gradientUnits="userSpaceOnUse">
<stop offset="0.349604" stop-color="white"/>
<stop offset="1" stop-color="white" stop-opacity="0.89"/>
</linearGradient>
<linearGradient id="paint1_linear_16168_48" x1="21.2068" y1="13.9571" x2="21.2068" y2="41.9031" gradientUnits="userSpaceOnUse">
<stop offset="0.24162" stop-color="white" stop-opacity="0.98"/>
<stop offset="0.707081" stop-color="white" stop-opacity="0"/>
</linearGradient>
</defs>
</svg>
